<?xml version="1.0" encoding="UTF-8"?><svg id="Ebene_1" xmlns="http://www.w3.org/2000/svg" viewBox="0 0 1920 1080"><defs><style>.cls-1{fill:#fff;}</style></defs><g><path class="cls-1" d="M487.2,368.45c15.8,21.87,25.52,49.83,25.52,79.6,0,85.07-52.86,134.89-139.15,134.89H69.76V157.6H373.57c86.28,0,139.15,49.22,139.15,134.29,0,28.56-9.72,55.29-25.52,76.56Zm-275.25-99.65v46.18h140.97c13.37,0,23.09-9.11,23.09-23.7s-9.72-22.48-23.09-22.48H211.95Zm164.06,179.25c0-14.58-9.72-23.09-23.09-23.09H211.95v46.79h140.97c13.37,0,23.09-9.11,23.09-23.7Z"/><path class="cls-1" d="M561.33,391.54V157.6h142.18v231.51c0,53.47,27.95,81.42,71.09,81.42s69.27-27.95,69.27-81.42V157.6h142.18v233.94c0,143.4-100.87,197.48-214.49,197.48s-210.24-54.08-210.24-197.48Z"/><path class="cls-1" d="M1182.92,270.01v43.75h231.51v112.41h-231.51v156.77h-142.18V157.6h373.69v112.41h-231.51Z"/><path class="cls-1" d="M1608.26,270.01v43.75h231.51v112.41h-231.51v156.77h-142.18V157.6h373.69v112.41h-231.51Z"/></g><polygon class="cls-1" points="444.29 884.07 70.56 884.07 70.56 624.14 133.09 624.14 133.09 821.53 381.76 821.53 381.76 624.14 1037.68 624.14 1037.68 740.17 1184.85 630.35 1234.81 655.41 1234.81 740.02 1381.83 630.34 1431.79 655.41 1431.79 740.31 1579.11 630.35 1629.08 655.41 1629.08 740.41 1801.56 611.65 1838.97 661.76 1616.52 827.83 1566.55 802.77 1566.55 717.76 1419.23 827.72 1369.26 802.67 1369.26 717.74 1222.24 827.42 1172.28 802.36 1172.28 717.75 1025.11 827.57 975.15 802.51 975.15 686.67 444.29 686.67 444.29 884.07"/></svg>